<svg width="650" height="648" viewBox="0 0 650 648" fill="none" xmlns="http://www.w3.org/2000/svg">
<g clip-path="url(#clip0_1036_236)">
<mask id="path-1-outside-1_1036_236" maskUnits="userSpaceOnUse" x="266" y="-22" width="651" height="650" fill="black">
<rect fill="white" x="266" y="-22" width="651" height="650"/>
<path d="M591.93 140.561L612.358 -21L612.198 141.837L652.734 -15.8964L632.307 145.665L692.313 -5.84863L651.777 152.045L730.296 9.14325L670.13 160.657L766.045 28.7603L687.366 171.662L798.921 52.843L703.165 184.58L828.765 80.7534L717.05 199.413L854.778 112.173L729.019 215.999L876.642 146.622L738.914 233.862L894.038 183.464L746.415 252.841L906.646 222.219L751.522 272.618L914.306 262.251L754.075 292.713L916.859 302.92L754.075 313.128L914.306 343.59L751.522 333.383L906.646 383.621L746.415 353.159L894.038 422.536L738.914 372.138L876.642 459.378L729.019 390.001L854.778 493.828L717.05 406.428L828.765 525.247L703.165 421.26L798.921 553.157L687.366 434.338L766.045 577.08L670.13 445.184L730.296 596.697L651.777 453.955L692.313 611.689L632.307 460.176L652.734 621.896L612.198 464.003L612.358 627L591.93 465.279L571.502 627V464.003L530.965 621.896L551.553 460.176L491.546 611.689L532.083 453.955L453.563 596.697L513.73 445.184L417.815 577.08L496.494 434.338L384.779 553.157L480.694 421.26L355.095 525.247L466.809 406.428L329.081 493.828L454.84 390.001L307.217 459.378L444.945 372.138L289.822 422.536L437.444 353.159L277.214 383.621L432.338 333.383L269.553 343.59L429.784 313.128L267 302.92L429.784 292.713L269.553 262.251L432.338 272.618L277.214 222.219L437.444 252.841L289.822 183.464L444.945 233.862L307.217 146.622L454.84 215.999L329.081 112.173L466.809 199.413L355.095 80.7534L480.694 184.58L384.779 52.843L496.494 171.662L417.815 28.7603L513.73 160.657L453.563 9.14325L532.083 152.045L491.546 -5.84863L551.553 145.665L530.965 -15.8964L571.502 141.837V-21L591.93 140.561Z"/>
</mask>
<path d="M591.93 140.561L612.358 -21L612.198 141.837L652.734 -15.8964L632.307 145.665L692.313 -5.84863L651.777 152.045L730.296 9.14325L670.13 160.657L766.045 28.7603L687.366 171.662L798.921 52.843L703.165 184.58L828.765 80.7534L717.05 199.413L854.778 112.173L729.019 215.999L876.642 146.622L738.914 233.862L894.038 183.464L746.415 252.841L906.646 222.219L751.522 272.618L914.306 262.251L754.075 292.713L916.859 302.92L754.075 313.128L914.306 343.59L751.522 333.383L906.646 383.621L746.415 353.159L894.038 422.536L738.914 372.138L876.642 459.378L729.019 390.001L854.778 493.828L717.05 406.428L828.765 525.247L703.165 421.26L798.921 553.157L687.366 434.338L766.045 577.08L670.13 445.184L730.296 596.697L651.777 453.955L692.313 611.689L632.307 460.176L652.734 621.896L612.198 464.003L612.358 627L591.93 465.279L571.502 627V464.003L530.965 621.896L551.553 460.176L491.546 611.689L532.083 453.955L453.563 596.697L513.73 445.184L417.815 577.08L496.494 434.338L384.779 553.157L480.694 421.26L355.095 525.247L466.809 406.428L329.081 493.828L454.84 390.001L307.217 459.378L444.945 372.138L289.822 422.536L437.444 353.159L277.214 383.621L432.338 333.383L269.553 343.59L429.784 313.128L267 302.92L429.784 292.713L269.553 262.251L432.338 272.618L277.214 222.219L437.444 252.841L289.822 183.464L444.945 233.862L307.217 146.622L454.84 215.999L329.081 112.173L466.809 199.413L355.095 80.7534L480.694 184.58L384.779 52.843L496.494 171.662L417.815 28.7603L513.73 160.657L453.563 9.14325L532.083 152.045L491.546 -5.84863L551.553 145.665L530.965 -15.8964L571.502 141.837V-21L591.93 140.561Z" stroke="black" stroke-width="2" stroke-miterlimit="10" mask="url(#path-1-outside-1_1036_236)"/>
<path d="M467.036 165.854L548.711 210.355L467.036 255.214L422.355 336.711L377.675 255.214L296 210.355L377.675 165.854L422.355 84L467.036 165.854Z" fill="#191A23"/>
<path d="M391.715 412.807L437.422 437.711L391.715 462.814L366.711 508.421L341.707 462.814L296 437.711L341.707 412.807L366.711 367L391.715 412.807Z" fill="#B9FF66"/>
</g>
<defs>
<clipPath id="clip0_1036_236">
<rect width="649.859" height="648" fill="white"/>
</clipPath>
</defs>
</svg>
